<svg id="linkedin" xmlns="http://www.w3.org/2000/svg" width="89.694" height="89.694" viewBox="0 0 89.694 89.694">
  <ellipse id="Ellipse_1250" data-name="Ellipse 1250" cx="44.847" cy="44.847" rx="44.847" ry="44.847" transform="translate(0 0)" fill="#0072b1"/>
  <g id="Group_11036" data-name="Group 11036" transform="translate(26.13 22.762)">
    <path id="Path_15866" data-name="Path 15866" d="M68.835,48.437V63.881H59.881V49.472c0-3.618-1.293-6.089-4.535-6.089a4.9,4.9,0,0,0-4.593,3.274,6.129,6.129,0,0,0-.3,2.182V63.88H41.5s.12-24.4,0-26.93h8.955v3.816c-.018.03-.043.059-.059.088h.059v-.088a8.891,8.891,0,0,1,8.07-4.449c5.891,0,10.307,3.849,10.307,12.119Zm-36.7-24.468c-3.063,0-5.067,2.011-5.067,4.652a4.637,4.637,0,0,0,4.949,4.654h.058c3.123,0,5.065-2.069,5.065-4.654a4.652,4.652,0,0,0-5.005-4.652ZM27.6,63.881h8.951V36.95H27.6Z" transform="translate(-27.068 -23.969)" fill="#fff"/>
  </g>
</svg>
