<svg id="Group_32807" data-name="Group 32807" xmlns="http://www.w3.org/2000/svg" width="89.648" height="89.694" viewBox="0 0 89.648 89.694">
  <path id="Path_17618" data-name="Path 17618" d="M956.248,48.524a44.824,44.824,0,1,0-51.795,44.27V61.45H893.005V48.524h11.448V38.645c0-11.218,6.647-17.45,16.9-17.45a64.334,64.334,0,0,1,9.971.923V33.06h-5.632c-5.586,0-7.34,3.508-7.34,7.017v8.4h12.464L928.828,61.4H918.349V92.748A44.694,44.694,0,0,0,956.248,48.524Z" transform="translate(-866.6 -3.7)" fill="#1877f2"/>
  <path id="Path_17619" data-name="Path 17619" d="M959.722,81.954l1.985-12.926H949.243v-8.4c0-3.555,1.8-7.017,7.34-7.017h5.632V42.623a64.334,64.334,0,0,0-9.971-.923c-10.248,0-16.9,6.232-16.9,17.45v9.879H923.9V81.954h11.448V113.3a44.135,44.135,0,0,0,13.941,0V81.954Z" transform="translate(-897.449 -24.158)" fill="#fff"/>
</svg>
